<?xml version="1.0" encoding="UTF-8" standalone="no"?>
<svg width="133px" height="23px" viewBox="0 0 133 23" version="1.1" xmlns="http://www.w3.org/2000/svg" xmlns:xlink="http://www.w3.org/1999/xlink" xmlns:sketch="http://www.bohemiancoding.com/sketch/ns">
    <defs>
        <path id="path-1" d="M12.765,1.539 L7.642,13.46 L2.541,1.583 C2.346,1.122 1.954,0.848 1.494,0.848 L1.494,0.848 C0.939,0.848 0.452,1.309 0.452,1.837 L0.452,1.837 C0.452,2.013 0.483,2.144 0.554,2.282 L0.554,2.282 L6.419,15.431 C6.631,15.948 7.042,16.232 7.577,16.232 L7.577,16.232 L7.665,16.232 C8.187,16.232 8.575,15.964 8.82,15.436 L8.82,15.436 L14.711,2.214 C14.763,2.086 14.788,1.96 14.788,1.815 L14.788,1.815 C14.788,1.281 14.33,0.848 13.769,0.848 L13.769,0.848 C13.292,0.848 12.94,1.199 12.765,1.539 L12.765,1.539 Z"></path>
        <path d="M0.447,6.45 L0.447,6.493 C0.447,9.758 3.079,12.316 6.44,12.316 L6.44,12.316 C9.837,12.316 12.498,9.739 12.498,6.45 L12.498,6.45 L12.498,6.407 C12.498,3.141 9.856,0.583 6.484,0.583 L6.484,0.583 C3.098,0.583 0.447,3.159 0.447,6.45 L0.447,6.45 Z M2.505,6.45 L2.505,6.407 C2.505,4.096 4.196,2.352 6.44,2.352 L6.44,2.352 C8.683,2.352 10.441,4.151 10.441,6.45 L10.441,6.45 L10.441,6.493 C10.441,8.793 8.739,10.527 6.484,10.527 L6.484,10.527 C4.253,10.527 2.505,8.737 2.505,6.45 L2.505,6.45 Z" id="path-3"></path>
        <path id="path-5" d="M0.011,1.203 L0.011,15.179 C0.011,15.734 0.458,16.168 1.029,16.168 L1.029,16.168 C1.598,16.168 2.026,15.742 2.026,15.179 L2.026,15.179 L2.026,1.203 C2.026,0.657 1.569,0.213 1.008,0.213 L1.008,0.213 C0.458,0.213 0.011,0.657 0.011,1.203 L0.011,1.203 Z"></path>
        <path d="M0.559,6.45 L0.559,6.493 C0.559,9.758 3.191,12.316 6.553,12.316 L6.553,12.316 C9.95,12.316 12.613,9.739 12.613,6.45 L12.613,6.45 L12.613,6.407 C12.613,3.141 9.97,0.583 6.596,0.583 L6.596,0.583 C3.21,0.583 0.559,3.159 0.559,6.45 L0.559,6.45 Z M2.617,6.45 L2.617,6.407 C2.617,4.096 4.309,2.352 6.553,2.352 L6.553,2.352 C8.797,2.352 10.554,4.151 10.554,6.45 L10.554,6.45 L10.554,6.493 C10.554,8.793 8.852,10.527 6.596,10.527 L6.596,10.527 C4.365,10.527 2.617,8.737 2.617,6.45 L2.617,6.45 Z" id="path-7"></path>
        <path id="path-9" d="M13.824,0.862 C13.42,0.862 13.066,1.057 12.855,1.392 L12.855,1.392 L7.586,9.088 L2.32,1.391 C2.081,1.045 1.746,0.862 1.352,0.862 L1.352,0.862 L1.155,0.862 C0.588,0.862 0.11,1.327 0.11,1.878 L0.11,1.878 L0.11,15.179 C0.11,15.748 0.56,16.195 1.134,16.195 L1.134,16.195 C1.72,16.195 2.179,15.748 2.179,15.179 L2.179,15.179 L2.179,4.785 L6.663,11.193 C6.902,11.529 7.206,11.699 7.566,11.699 L7.566,11.699 C7.92,11.699 8.2,11.538 8.447,11.192 L8.447,11.192 L12.95,4.763 L12.95,15.158 C12.95,15.72 13.44,16.195 14.02,16.195 L14.02,16.195 C14.586,16.195 15.065,15.72 15.065,15.158 L15.065,15.158 L15.065,1.878 C15.065,1.327 14.586,0.862 14.02,0.862 L14.02,0.862 L13.824,0.862 Z"></path>
        <path d="M0.036,6.428 L0.036,6.47 C0.036,9.818 2.532,12.344 5.841,12.344 L5.841,12.344 C7.605,12.344 8.954,11.819 10.21,10.648 L10.21,10.648 C10.421,10.467 10.538,10.229 10.538,9.976 L10.538,9.976 C10.538,9.484 10.116,9.087 9.599,9.087 L9.599,9.087 C9.387,9.087 9.189,9.163 8.988,9.328 L8.988,9.328 C8.06,10.157 7.074,10.543 5.885,10.543 L5.885,10.543 C3.919,10.543 2.443,9.223 2.154,7.234 L2.154,7.234 L10.056,7.234 C10.597,7.234 11.038,6.806 11.038,6.28 L11.038,6.28 C11.038,3.435 9.178,0.556 5.624,0.556 L5.624,0.556 C2.491,0.556 0.036,3.135 0.036,6.428 L0.036,6.428 Z M5.58,2.315 C7.757,2.315 8.737,3.997 8.945,5.644 L8.945,5.644 L2.154,5.644 C2.438,3.673 3.822,2.315 5.58,2.315 L5.58,2.315 Z" id="path-11"></path>
        <path id="path-13" d="M2.597,1.405 L2.597,3.789 L1.883,3.789 C1.374,3.789 0.945,4.206 0.945,4.699 L0.945,4.699 C0.945,5.185 1.383,5.61 1.883,5.61 L1.883,5.61 L2.597,5.61 L2.597,12.004 C2.597,14.117 3.794,15.281 5.968,15.281 L5.968,15.281 C6.612,15.281 7.16,15.183 7.691,14.972 L7.691,14.972 C8.063,14.833 8.296,14.519 8.296,14.158 L8.296,14.158 C8.296,13.668 7.885,13.268 7.38,13.268 L7.38,13.268 C7.313,13.268 7.244,13.286 7.148,13.311 L7.148,13.311 C6.982,13.352 6.732,13.417 6.359,13.417 L6.359,13.417 C5.205,13.417 4.667,12.901 4.667,11.794 L4.667,11.794 L4.667,5.61 L7.38,5.61 C7.909,5.61 8.34,5.202 8.34,4.699 L8.34,4.699 C8.34,4.206 7.9,3.789 7.38,3.789 L7.38,3.789 L4.667,3.789 L4.667,1.405 C4.667,0.855 4.188,0.389 3.62,0.389 L3.62,0.389 C3.047,0.389 2.597,0.837 2.597,1.405 L2.597,1.405 Z"></path>
        <path id="path-15" d="M2.859,2.967 L2.859,1.699 C2.859,1.129 2.4,0.683 1.814,0.683 L1.814,0.683 C1.249,0.683 0.79,1.14 0.79,1.699 L0.79,1.699 L0.79,11.179 C0.79,11.748 1.249,12.195 1.836,12.195 L1.836,12.195 C2.41,12.195 2.859,11.748 2.859,11.179 L2.859,11.179 L2.859,7.464 C2.859,4.74 4.272,2.949 6.646,2.672 L6.646,2.672 C7.189,2.593 7.554,2.185 7.554,1.658 L7.554,1.658 C7.554,1.068 7.123,0.641 6.529,0.641 L6.529,0.641 C5.171,0.641 3.747,1.568 2.859,2.967 L2.859,2.967 Z"></path>
        <path d="M0.59,1.562 L0.59,1.837 C0.59,2.44 1.096,2.895 1.767,2.895 L1.767,2.895 C2.451,2.895 2.966,2.44 2.966,1.837 L2.966,1.837 L2.966,1.562 C2.966,0.948 2.462,0.504 1.767,0.504 L1.767,0.504 C1.085,0.504 0.59,0.948 0.59,1.562 L0.59,1.562 Z M0.743,5.699 L0.743,15.179 C0.743,15.748 1.202,16.195 1.789,16.195 L1.789,16.195 C2.373,16.195 2.813,15.759 2.813,15.179 L2.813,15.179 L2.813,5.699 C2.813,5.129 2.354,4.683 1.767,4.683 L1.767,4.683 C1.202,4.683 0.743,5.14 0.743,5.699 L0.743,5.699 Z" id="path-17"></path>
        <path id="path-19" d="M8.201,1.159 L5.14,4.935 L2.057,1.134 C1.895,0.941 1.626,0.683 1.165,0.683 L1.165,0.683 C0.596,0.683 0.184,1.084 0.184,1.636 L0.184,1.636 C0.184,1.893 0.286,2.128 0.488,2.349 L0.488,2.349 L3.843,6.345 L0.286,10.599 C0.1,10.779 0.01,10.995 0.01,11.263 L0.01,11.263 C0.01,11.786 0.432,12.195 0.969,12.195 L0.969,12.195 C1.388,12.195 1.655,11.943 1.842,11.721 L1.842,11.721 L5.076,7.733 L8.334,11.745 C8.496,11.939 8.766,12.195 9.226,12.195 L9.226,12.195 C9.785,12.195 10.207,11.786 10.207,11.243 L10.207,11.243 C10.207,11.001 10.116,10.769 9.924,10.529 L9.924,10.529 L6.375,6.302 L9.768,2.268 C9.946,2.068 10.033,1.853 10.033,1.615 L10.033,1.615 C10.033,1.084 9.621,0.683 9.073,0.683 L9.073,0.683 C8.655,0.683 8.389,0.935 8.201,1.159 L8.201,1.159 Z"></path>
        <path d="M4.663,1.085 L1.75,2.484 C0.939,2.875 0.433,3.627 0.339,4.442 L0.339,4.442 C0.284,4.901 0.362,5.379 0.588,5.824 L0.588,5.824 L2.031,8.655 C2.12,8.833 2.361,9.249 2.361,9.249 L2.361,9.249 C2.885,10.204 4.376,12.903 4.91,13.781 L4.91,13.781 C4.91,13.781 4.09,11.84 4.243,10.873 L4.243,10.873 C4.243,10.873 4.368,10.336 4.735,10.127 L4.735,10.127 C4.958,10 5.318,9.854 5.469,9.783 L5.469,9.783 L8.38,8.382 C9.65,7.771 10.17,6.276 9.541,5.041 L9.541,5.041 L8.099,2.213 C7.652,1.334 6.743,0.825 5.799,0.825 L5.799,0.825 C5.416,0.825 5.028,0.908 4.663,1.085 L4.663,1.085 Z M3.074,7.545 L2.13,5.689 C1.717,4.881 2.059,3.899 2.891,3.5 L2.891,3.5 L4.8,2.581 C5.633,2.18 6.643,2.512 7.056,3.32 L7.056,3.32 L8,5.176 C8.149,5.468 8.2,5.783 8.165,6.085 L8.165,6.085 C8.103,6.617 7.773,7.111 7.239,7.367 L7.239,7.367 L5.33,8.284 C5.089,8.401 4.835,8.456 4.583,8.456 L4.583,8.456 C3.964,8.456 3.368,8.122 3.074,7.545 L3.074,7.545 Z" id="path-21"></path>
        <path d="M7.252,0.585 L4.876,1.73 C4.727,1.803 4.375,1.99 4.375,1.99 L4.375,1.99 C3.574,2.407 1.308,3.588 0.569,4.013 L0.569,4.013 C0.569,4.013 2.198,3.362 3.012,3.485 L3.012,3.485 C3.012,3.485 3.463,3.583 3.639,3.874 L3.639,3.874 C3.746,4.051 3.867,4.336 3.929,4.455 L3.929,4.455 L5.105,6.765 C5.617,7.771 6.874,8.183 7.91,7.684 L7.91,7.684 L10.286,6.541 C11.322,6.043 11.746,4.823 11.234,3.817 L11.234,3.817 L10.057,1.506 C9.729,0.863 9.097,0.463 8.415,0.388 L8.415,0.388 C8.336,0.379 8.257,0.375 8.177,0.375 L8.177,0.375 C7.865,0.375 7.549,0.443 7.252,0.585 L7.252,0.585 Z M7.035,6.594 C6.587,6.545 6.172,6.28 5.957,5.86 L5.957,5.86 L5.186,4.345 C4.848,3.685 5.128,2.885 5.807,2.558 L5.807,2.558 L7.366,1.809 C8.045,1.482 8.869,1.751 9.204,2.412 L9.204,2.412 L9.977,3.926 C10.313,4.586 10.034,5.387 9.355,5.712 L9.355,5.712 L7.796,6.464 C7.599,6.559 7.391,6.603 7.186,6.603 L7.186,6.603 C7.135,6.603 7.085,6.6 7.035,6.594 L7.035,6.594 Z" id="path-23"></path>
        <path d="M3.891,2.522 C3.891,2.522 3.81,2.88 3.566,3.018 L3.566,3.018 C3.418,3.103 3.177,3.201 3.078,3.248 L3.078,3.248 L1.143,4.178 C0.297,4.585 -0.048,5.581 0.369,6.401 L0.369,6.401 L1.329,8.281 C1.746,9.101 2.771,9.438 3.614,9.031 L3.614,9.031 L5.55,8.101 C6.09,7.841 6.426,7.341 6.489,6.8 L6.489,6.8 C6.525,6.494 6.473,6.176 6.323,5.88 L6.323,5.88 L5.363,3.997 C5.304,3.88 5.145,3.602 5.145,3.602 L5.145,3.602 C4.796,2.969 3.805,1.174 3.448,0.588 L3.448,0.588 C3.448,0.588 3.995,1.879 3.891,2.522 L3.891,2.522 Z M2.023,7.545 L1.394,6.31 C1.296,6.116 1.261,5.907 1.285,5.706 L1.285,5.706 C1.325,5.353 1.547,5.024 1.9,4.854 L1.9,4.854 L3.171,4.243 C3.724,3.977 4.395,4.197 4.67,4.735 L4.67,4.735 L5.299,5.969 C5.572,6.508 5.345,7.159 4.792,7.425 L4.792,7.425 L3.521,8.037 C3.362,8.114 3.193,8.15 3.026,8.15 L3.026,8.15 C2.614,8.15 2.217,7.928 2.023,7.545 L2.023,7.545 Z" id="path-25"></path>
        <path d="M2.932,0.554 L1.377,1.302 C0.699,1.629 0.422,2.426 0.756,3.086 L0.756,3.086 L1.527,4.597 C1.741,5.018 2.155,5.28 2.601,5.33 L2.601,5.33 C2.854,5.357 3.118,5.317 3.363,5.2 L3.363,5.2 L4.919,4.451 C5.016,4.404 5.244,4.279 5.244,4.279 L5.244,4.279 C5.769,4.007 7.255,3.234 7.736,2.955 L7.736,2.955 C7.736,2.955 6.671,3.382 6.138,3.302 L6.138,3.302 C6.138,3.302 5.843,3.239 5.728,3.048 L5.728,3.048 C5.658,2.932 5.578,2.745 5.539,2.666 L5.539,2.666 L4.768,1.156 C4.53,0.687 4.044,0.415 3.54,0.415 L3.54,0.415 C3.335,0.415 3.128,0.46 2.932,0.554 L2.932,0.554 Z M2.085,4.005 L1.58,3.014 C1.359,2.583 1.542,2.058 1.986,1.845 L1.986,1.845 L3.006,1.352 C3.167,1.275 3.34,1.249 3.506,1.267 L3.506,1.267 C3.799,1.299 4.069,1.47 4.211,1.747 L4.211,1.747 L4.714,2.738 C4.936,3.172 4.755,3.694 4.308,3.909 L4.308,3.909 L3.289,4.399 C3.16,4.461 3.024,4.491 2.889,4.491 L2.889,4.491 C2.559,4.491 2.241,4.313 2.085,4.005 L2.085,4.005 Z" id="path-27"></path>
    </defs>
    <g id="Page-1" stroke="none" stroke-width="1" fill="none" fill-rule="evenodd" sketch:type="MSPage">
        <g id="Group" sketch:type="MSLayerGroup">
            <g id="Group-3" transform="translate(22.000000, 3.000000)">
                <mask id="mask-2" sketch:name="Clip 2" fill="white">
                    <use xlink:href="#path-1"></use>
                </mask>
                <g id="Clip-2"></g>
                <path d="M-4.118,-3.724 L19.359,-3.724 L19.359,20.803 L-4.118,20.803 L-4.118,-3.724 Z" id="Fill-1" fill="#444442" sketch:type="MSShapeGroup" mask="url(#mask-2)"></path>
            </g>
            <g id="Group-6" transform="translate(36.000000, 7.000000)">
                <mask id="mask-4" sketch:name="Clip 5" fill="white">
                    <use xlink:href="#path-3"></use>
                </mask>
                <g id="Clip-5"></g>
                <path d="M-4.125,-3.988 L17.069,-3.988 L17.069,16.887 L-4.125,16.887 L-4.125,-3.988 Z" id="Fill-4" fill="#444442" sketch:type="MSShapeGroup" mask="url(#mask-4)"></path>
            </g>
            <g id="Group-9" transform="translate(51.000000, 3.000000)">
                <mask id="mask-6" sketch:name="Clip 8" fill="white">
                    <use xlink:href="#path-5"></use>
                </mask>
                <g id="Clip-8"></g>
                <path d="M-4.56,-4.358 L6.597,-4.358 L6.597,20.739 L-4.56,20.739 L-4.56,-4.358 Z" id="Fill-7" fill="#444442" sketch:type="MSShapeGroup" mask="url(#mask-6)"></path>
            </g>
            <g id="Group-12" transform="translate(55.000000, 7.000000)">
                <mask id="mask-8" sketch:name="Clip 11" fill="white">
                    <use xlink:href="#path-7"></use>
                </mask>
                <g id="Clip-11"></g>
                <path d="M-4.012,-3.988 L17.183,-3.988 L17.183,16.887 L-4.012,16.887 L-4.012,-3.988 Z" id="Fill-10" fill="#444442" sketch:type="MSShapeGroup" mask="url(#mask-8)"></path>
            </g>
            <g id="Group-15" transform="translate(70.000000, 3.000000)">
                <mask id="mask-10" sketch:name="Clip 14" fill="white">
                    <use xlink:href="#path-9"></use>
                </mask>
                <g id="Clip-14"></g>
                <path d="M-4.461,-3.709 L19.636,-3.709 L19.636,20.766 L-4.461,20.766 L-4.461,-3.709 Z" id="Fill-13" fill="#55B5DB" sketch:type="MSShapeGroup" mask="url(#mask-10)"></path>
            </g>
            <g id="Group-18" transform="translate(87.000000, 7.000000)">
                <mask id="mask-12" sketch:name="Clip 17" fill="white">
                    <use xlink:href="#path-11"></use>
                </mask>
                <g id="Clip-17"></g>
                <path d="M-4.534,-4.015 L15.609,-4.015 L15.609,16.914 L-4.534,16.914 L-4.534,-4.015 Z" id="Fill-16" fill="#55B5DB" sketch:type="MSShapeGroup" mask="url(#mask-12)"></path>
            </g>
            <g id="Group-21" transform="translate(98.000000, 4.000000)">
                <mask id="mask-14" sketch:name="Clip 20" fill="white">
                    <use xlink:href="#path-13"></use>
                </mask>
                <g id="Clip-20"></g>
                <path d="M-3.626,-4.182 L12.911,-4.182 L12.911,19.851 L-3.626,19.851 L-3.626,-4.182 Z" id="Fill-19" fill="#55B5DB" sketch:type="MSShapeGroup" mask="url(#mask-14)"></path>
            </g>
            <g id="Group-24" transform="translate(108.000000, 7.000000)">
                <mask id="mask-16" sketch:name="Clip 23" fill="white">
                    <use xlink:href="#path-15"></use>
                </mask>
                <g id="Clip-23"></g>
                <path d="M-3.781,-3.93 L12.125,-3.93 L12.125,16.766 L-3.781,16.766 L-3.781,-3.93 Z" id="Fill-22" fill="#55B5DB" sketch:type="MSShapeGroup" mask="url(#mask-16)"></path>
            </g>
            <g id="Group-27" transform="translate(117.000000, 3.000000)">
                <mask id="mask-18" sketch:name="Clip 26" fill="white">
                    <use xlink:href="#path-17"></use>
                </mask>
                <g id="Clip-26"></g>
                <path d="M-3.98,-4.068 L7.537,-4.068 L7.537,20.766 L-3.98,20.766 L-3.98,-4.068 Z" id="Fill-25" fill="#55B5DB" sketch:type="MSShapeGroup" mask="url(#mask-18)"></path>
            </g>
            <g id="Group-30" transform="translate(122.000000, 7.000000)">
                <mask id="mask-20" sketch:name="Clip 29" fill="white">
                    <use xlink:href="#path-19"></use>
                </mask>
                <g id="Clip-29"></g>
                <path d="M-4.56,-3.888 L14.779,-3.888 L14.779,16.766 L-4.56,16.766 L-4.56,-3.888 Z" id="Fill-28" fill="#55B5DB" sketch:type="MSShapeGroup" mask="url(#mask-20)"></path>
            </g>
            <g id="Group-33" transform="translate(3.000000, 0.000000)">
                <mask id="mask-22" sketch:name="Clip 32" fill="white">
                    <use xlink:href="#path-21"></use>
                </mask>
                <g id="Clip-32"></g>
                <path d="M-4.249,-3.746 L14.379,-3.746 L14.379,18.352 L-4.249,18.352 L-4.249,-3.746 Z" id="Fill-31" fill="#55B5DB" sketch:type="MSShapeGroup" mask="url(#mask-22)"></path>
            </g>
            <g id="Group-36" transform="translate(8.000000, 8.000000)">
                <mask id="mask-24" sketch:name="Clip 35" fill="white">
                    <use xlink:href="#path-23"></use>
                </mask>
                <g id="Clip-35"></g>
                <path d="M-4.002,-4.196 L16.022,-4.196 L16.022,12.467 L-4.002,12.467 L-4.002,-4.196 Z" id="Fill-34" fill="#55B5DB" sketch:type="MSShapeGroup" mask="url(#mask-24)"></path>
            </g>
            <g id="Group-39" transform="translate(6.000000, 13.000000)">
                <mask id="mask-26" sketch:name="Clip 38" fill="white">
                    <use xlink:href="#path-25"></use>
                </mask>
                <g id="Clip-38"></g>
                <path d="M-4.379,-3.983 L11.071,-3.983 L11.071,13.775 L-4.379,13.775 L-4.379,-3.983 Z" id="Fill-37" fill="#55B5DB" sketch:type="MSShapeGroup" mask="url(#mask-26)"></path>
            </g>
            <g id="Group-42" transform="translate(0.000000, 12.000000)">
                <mask id="mask-28" sketch:name="Clip 41" fill="white">
                    <use xlink:href="#path-27"></use>
                </mask>
                <g id="Clip-41"></g>
                <path d="M-3.957,-4.156 L12.307,-4.156 L12.307,9.909 L-3.957,9.909 L-3.957,-4.156 Z" id="Fill-40" fill="#55B5DB" sketch:type="MSShapeGroup" mask="url(#mask-28)"></path>
            </g>
        </g>
    </g>
</svg>