<?xml version="1.0" encoding="UTF-8" standalone="no"?>
<svg width="91px" height="26px" viewBox="0 0 91 26" version="1.1" xmlns="http://www.w3.org/2000/svg" xmlns:xlink="http://www.w3.org/1999/xlink" xmlns:sketch="http://www.bohemiancoding.com/sketch/ns">
    <title>Symantec_logo10</title>
    <desc>Created with Sketch.</desc>
    <defs></defs>
    <g id="Page-1" stroke="none" stroke-width="1" fill="none" fill-rule="evenodd" sketch:type="MSPage">
        <g id="Symantec_logo10" sketch:type="MSLayerGroup">
            <path d="M23.187617,0.8125 L23.187617,1.5625 L23.937617,1.5625 L23.937617,0.8125 L23.187617,0.8125 L23.187617,0.8125 Z M23.187617,2.3125 L23.187617,3.0625 L23.937617,3.0625 L23.937617,2.3125 L23.187617,2.3125 L23.187617,2.3125 Z M20.937617,3.0625 L20.937617,3.8125 L21.687617,3.8125 L21.687617,3.0625 L20.937617,3.0625 L20.937617,3.0625 Z" id="rect3886" fill="#FDB511" sketch:type="MSShapeGroup"></path>
            <path d="M11.125117,3.625 C5.1698562,3.625 0.3438672,8.45099 0.3438672,14.40625 C0.3438672,20.36151 5.1698562,25.1875 11.125117,25.1875 C17.080378,25.1875 21.906367,20.36151 21.906367,14.40625 C21.906367,8.45099 17.080378,3.625 11.125117,3.625 L11.125117,3.625 Z M11.125117,7.0625 C15.17715,7.0625 18.468867,10.35422 18.468867,14.40625 C18.468867,18.45828 15.17715,21.75 11.125117,21.75 C7.0730842,21.75 3.8126172,18.45828 3.8126172,14.40625 C3.8126172,10.35422 7.0730842,7.0625 11.125117,7.0625 L11.125117,7.0625 Z" id="path3095" fill="#FDB511" sketch:type="MSShapeGroup"></path>
            <g id="text58" transform="translate(24.000000, 9.000000)" fill="#000000" sketch:type="MSShapeGroup">
                <path d="M4.162616,11.111273 C2.612614,11.111273 1.312615,10.726273 0.262616,9.956273 L1.267616,8.306273 C2.107614,8.896275 3.057613,9.191275 4.117616,9.191273 C4.637612,9.191275 5.047611,9.091273 5.347616,8.891273 C5.647611,8.681275 5.79761,8.391276 5.797616,8.021273 C5.79761,7.921273 5.787606,7.831276 5.767616,7.751273 C5.747606,7.671273 5.712606,7.596277 5.662616,7.526273 C5.612616,7.446273 5.562611,7.381277 5.512616,7.331273 C5.462606,7.271273 5.382611,7.211277 5.272616,7.151273 C5.172611,7.091273 5.082611,7.041277 5.002616,7.001273 C4.932616,6.961273 4.817611,6.911273 4.657616,6.851273 C4.497612,6.791273 4.362612,6.746277 4.252616,6.716273 C4.152612,6.676273 3.997612,6.621273 3.787616,6.551273 C3.577613,6.481283 3.402613,6.421278 3.262616,6.371273 C2.892613,6.241278 2.577614,6.106278 2.317616,5.966273 C2.057614,5.816278 1.792614,5.626279 1.522616,5.396273 C1.252615,5.156279 1.047615,4.856279 0.907616,4.496273 C0.767615,4.12628 0.697615,3.70628 0.697616,3.236273 C0.697615,2.286282 1.027615,1.551283 1.687616,1.031273 C2.347614,0.501284 3.217613,0.236284 4.297616,0.236273 C5.597611,0.236284 6.65261,0.476284 7.462616,0.956273 L6.697616,2.681273 C5.93761,2.321282 5.162611,2.141282 4.372616,2.141273 C3.332613,2.141282 2.812613,2.481282 2.812616,3.161273 C2.812613,3.321281 2.842616,3.461281 2.902616,3.581273 C2.962616,3.70128 3.027613,3.80128 3.097616,3.881273 C3.167616,3.961283 3.292613,4.04128 3.472616,4.121273 C3.662612,4.201283 3.817612,4.26128 3.937616,4.301273 C4.067612,4.341283 4.277612,4.40628 4.567616,4.496273 C4.697611,4.536283 4.797611,4.566283 4.867616,4.586273 C5.217611,4.696279 5.517611,4.801279 5.767616,4.901273 C6.01761,5.001279 6.29261,5.146279 6.592616,5.336273 C6.892609,5.516279 7.137609,5.721278 7.327616,5.951273 C7.517609,6.181278 7.677608,6.471278 7.807616,6.821273 C7.937608,7.171277 8.002608,7.561277 8.002616,7.991273 C8.002608,8.931275 7.667608,9.686274 6.997616,10.256273 C6.33761,10.826273 5.392611,11.111273 4.162616,11.111273" id="path2820"></path>
                <path d="M11.704569,11.321273 L8.869569,3.206273 L11.224569,3.206273 L12.679569,8.876273 L13.909569,3.206273 L16.114569,3.206273 L13.789569,11.066273 C13.249565,12.886271 12.124566,13.79627 10.414569,13.796273 C10.014568,13.79627 9.589569,13.751273 9.139569,13.661273 L9.379569,12.071273 C9.779568,12.111273 10.034568,12.131273 10.144569,12.131273 C10.554568,12.131272 10.874567,12.066273 11.104569,11.936273 C11.334567,11.816272 11.534567,11.611273 11.704569,11.321273" id="path2822"></path>
                <path d="M23.551757,4.226273 C24.301749,3.426281 25.101748,3.026281 25.951757,3.026273 C26.741747,3.026281 27.296746,3.296281 27.616757,3.836273 C27.946745,4.37628 28.111745,5.051279 28.111757,5.861273 L28.111757,10.961273 L25.831757,10.961273 L25.831757,5.831273 C25.831747,5.211279 25.591748,4.901279 25.111757,4.901273 C24.731749,4.901279 24.306749,5.111279 23.836757,5.531273 L23.836757,10.961273 L21.556757,10.961273 L21.556757,5.831273 C21.556752,5.211279 21.316752,4.901279 20.836757,4.901273 C20.396753,4.901279 19.971753,5.121279 19.561757,5.561273 L19.561757,10.961273 L17.281757,10.961273 L17.281757,3.206273 L18.691757,3.206273 L19.141757,4.391273 C19.931753,3.481281 20.776753,3.026281 21.676757,3.026273 C22.576751,3.026281 23.20175,3.426281 23.551757,4.226273" id="path2824"></path>
                <path d="M33.807304,5.996273 L33.807304,5.801273 C33.807299,5.451279 33.727304,5.196279 33.567304,5.036273 C33.417299,4.876279 33.1523,4.796279 32.772304,4.796273 C32.182301,4.796279 31.457301,4.996279 30.597304,5.396273 L29.817304,3.896273 C30.817302,3.316281 31.867301,3.026281 32.967304,3.026273 C33.997299,3.026281 34.772298,3.281281 35.292304,3.791273 C35.822297,4.29128 36.087297,5.006279 36.087304,5.936273 L36.087304,10.961273 L34.677304,10.961273 C34.417298,10.411274 34.282299,10.136274 34.272304,10.136273 C33.562299,10.786273 32.8023,11.111273 31.992304,11.111273 C31.302302,11.111273 30.722302,10.911273 30.252304,10.511273 C29.792303,10.101274 29.562303,9.546275 29.562304,8.846273 C29.562303,8.026276 29.827303,7.426277 30.357304,7.046273 C30.977302,6.586278 32.127301,6.236278 33.807304,5.996273 M33.807304,9.041273 L33.807304,7.406273 C32.8173,7.606277 32.217301,7.826276 32.007304,8.066273 C31.867301,8.216276 31.797301,8.421276 31.797304,8.681273 C31.797301,9.231275 32.062301,9.506275 32.592304,9.506273 C33.0323,9.506275 33.437299,9.351275 33.807304,9.041273" id="path2826"></path>
                <path d="M37.906757,10.961273 L37.906757,3.206273 L39.316757,3.206273 L39.766757,4.391273 C40.556753,3.481281 41.421752,3.026281 42.361757,3.026273 C43.84175,3.026281 44.581749,3.97128 44.581757,5.861273 L44.581757,10.961273 L42.301757,10.961273 L42.301757,5.831273 C42.301752,5.211279 42.041752,4.901279 41.521757,4.901273 C41.041753,4.901279 40.596753,5.121279 40.186757,5.561273 L40.186757,10.961273 L37.906757,10.961273" id="path2828"></path>
                <path d="M46.942148,4.766273 L45.802148,4.766273 L45.802148,3.206273 L46.972148,3.206273 L47.362148,1.001273 L49.222148,1.001273 L49.222148,3.206273 L50.872148,3.206273 L50.872148,4.766273 L49.222148,4.766273 L49.222148,8.501273 C49.222144,8.841275 49.277148,9.076275 49.387148,9.206273 C49.497144,9.336275 49.722143,9.401275 50.062148,9.401273 C50.252143,9.401275 50.517143,9.351273 50.857148,9.251273 L51.127148,10.826273 C50.557142,11.016273 49.977143,11.111273 49.387148,11.111273 C47.757145,11.111273 46.942146,10.281274 46.942148,8.621273 L46.942148,4.766273" id="path2830"></path>
                <path d="M54.417304,7.751273 C54.467304,8.281276 54.612301,8.671275 54.852304,8.921273 C55.1023,9.171275 55.4723,9.296275 55.962304,9.296273 C56.232299,9.296275 56.502299,9.256273 56.772304,9.176273 C57.052298,9.096273 57.257298,9.021275 57.387304,8.951273 C57.527298,8.881273 57.732298,8.771275 58.002304,8.621273 L58.902304,10.061273 C58.592297,10.291274 58.327297,10.471274 58.107304,10.601273 C57.887297,10.721273 57.572298,10.836273 57.162304,10.946273 C56.752299,11.056273 56.297299,11.111273 55.797304,11.111273 C54.657301,11.111273 53.747302,10.761273 53.067304,10.061273 C52.397303,9.351275 52.062303,8.386276 52.062304,7.166273 C52.062303,5.946278 52.382303,4.951279 53.022304,4.181273 C53.662302,3.411281 54.542301,3.026281 55.662304,3.026273 C56.812299,3.026281 57.672298,3.411281 58.242304,4.181273 C58.812297,4.951279 59.097296,5.941278 59.097304,7.151273 L59.097304,7.751273 L54.417304,7.751273 M54.417304,6.416273 L56.772304,6.416273 C56.772299,5.246279 56.397299,4.661279 55.647304,4.661273 C55.2873,4.661279 55.0073,4.801279 54.807304,5.081273 C54.607301,5.351279 54.477301,5.796278 54.417304,6.416273" id="path2832"></path>
                <path d="M63.971132,11.111273 C62.731129,11.111273 61.79613,10.746273 61.166132,10.016273 C60.546131,9.276275 60.236131,8.311276 60.236132,7.121273 C60.236131,5.931278 60.561131,4.951279 61.211132,4.181273 C61.86113,3.411281 62.781129,3.026281 63.971132,3.026273 C65.021127,3.026281 65.876126,3.316281 66.536132,3.896273 L65.471132,5.411273 C65.201126,5.211279 64.966127,5.076279 64.766132,5.006273 C64.566127,4.926283 64.306127,4.886279 63.986132,4.886273 C63.056129,4.886279 62.591129,5.621279 62.591132,7.091273 C62.591129,8.531276 63.066129,9.251275 64.016132,9.251273 C64.526127,9.251275 65.041127,9.046275 65.561132,8.636273 L66.656132,10.046273 C65.946126,10.756273 65.051127,11.111273 63.971132,11.111273" id="path2834"></path>
            </g>
            <path d="M14.187617,9.0625 C12.229997,11.50919 11.736649,12.58352 10.956754,14.56172 C10.071893,12.77199 9.015866,11.53683 7.1876172,10.71875 C6.8412812,10.63035 6.6709722,10.57907 6.4376172,10.90625 C6.2042622,11.23343 6.3457572,11.5278 6.6251172,11.875 C7.3571822,12.78483 8.179856,13.62545 8.750117,14.65625 C9.418659,15.8647 10.251023,17.8564 10.531367,18.375 C10.754332,18.78746 11.293568,18.96875 11.500117,18.96875 C12.60653,18.83782 12.606915,18.27534 12.81782,17.3003 C13.159826,15.70138 13.602777,14.04837 15.687617,12.0625 L15.687617,9.0625 L14.187617,9.0625 L14.187617,9.0625 Z" id="path3876" fill="#000000" sketch:type="MSShapeGroup"></path>
            <path d="M22.437617,1.5625 L22.437617,2.3125 L23.187617,2.3125 L23.187617,1.5625 L22.437617,1.5625 L22.437617,1.5625 Z M22.437617,2.3125 L20.937617,2.3125 L20.937617,3.0625 L22.437617,3.0625 L22.437617,2.3125 L22.437617,2.3125 Z M20.937617,3.0625 L20.187617,3.0625 L20.187617,4.5625 L20.937617,4.5625 L20.937617,3.0625 L20.937617,3.0625 Z M20.937617,4.5625 L20.937617,5.3125 L21.687617,5.3125 L21.687617,4.5625 L20.937617,4.5625 L20.937617,4.5625 Z M21.687617,4.5625 L22.437617,4.5625 L22.437617,3.8125 L21.687617,3.8125 L21.687617,4.5625 L21.687617,4.5625 Z M20.937617,5.3125 L20.187617,5.3125 L20.187617,6.0625 L19.437617,6.0625 L19.437617,5.3125 L17.937617,5.3125 L17.937617,6.0625 L17.187617,6.0625 L17.187617,6.8125 L17.937617,6.8125 L17.937617,7.5625 L17.187617,7.5625 L17.187617,6.8125 L16.437617,6.8125 L16.437617,7.5625 L15.687617,7.5625 L15.687617,8.3125 L14.937617,8.3125 L14.937617,11.3125 L16.437617,11.3125 L16.437617,10.5625 L17.187617,10.5625 L17.187617,9.8125 L17.937617,9.8125 L17.937617,9.0625 L17.187617,9.0625 L17.187617,8.3125 L17.937617,8.3125 L17.937617,9.0625 L18.687617,9.0625 L18.687617,8.3125 L19.437617,8.3125 L19.437617,7.5625 L20.187617,7.5625 L20.187617,6.8125 L20.937617,6.8125 L20.937617,5.3125 L20.937617,5.3125 Z M19.437617,5.3125 L20.187617,5.3125 L20.187617,4.5625 L19.437617,4.5625 L19.437617,5.3125 L19.437617,5.3125 Z M19.437617,4.5625 L19.437617,3.8125 L18.687617,3.8125 L18.687617,4.5625 L19.437617,4.5625 L19.437617,4.5625 Z" id="rect3951" fill="#000000" sketch:type="MSShapeGroup"></path>
        </g>
    </g>
</svg>