<?xml version="1.0" encoding="UTF-8" standalone="no"?>
<svg width="147px" height="25px" viewBox="0 0 147 25" version="1.1" xmlns="http://www.w3.org/2000/svg" xmlns:xlink="http://www.w3.org/1999/xlink" xmlns:sketch="http://www.bohemiancoding.com/sketch/ns">
    <!-- Generator: Sketch 3.3.1 (12002) - http://www.bohemiancoding.com/sketch -->
    <title>Logo Copy</title>
    <desc>Created with Sketch.</desc>
    <defs>
        <path id="path-1" d="M0,0.0948036948 L146.945066,0.0948036948 L146.945066,23.6399959 L0,23.6399959"></path>
    </defs>
    <g id="Dashboard" stroke="none" stroke-width="1" fill="none" fill-rule="evenodd" sketch:type="MSPage">
        <g id="Group" sketch:type="MSLayerGroup" transform="translate(0.000000, -25.000000)">
            <g id="Logo-Copy" transform="translate(0.000000, 25.794404)">
                <path d="M32.4393903,20.3663195 L32.3409664,20.3663195 C31.7443194,20.3663195 31.2852623,20.0531505 31.0487398,19.4843283 L24.4991014,5.00373414 C24.4200062,4.85165829 24.3859266,4.70689378 24.3859266,4.51265587 C24.3859266,3.93189185 24.9294197,3.42277895 25.5487017,3.42277895 C26.0632017,3.42277895 26.5001325,3.7259558 26.7180893,4.23385015 L32.4139578,17.3143229 L38.1352588,4.18510789 C38.330072,3.81076734 38.7227502,3.42277895 39.2560702,3.42277895 C39.8832363,3.42277895 40.3934128,3.90142794 40.3934128,4.48974701 C40.3934128,4.64815935 40.3662,4.78756222 40.3074509,4.92867106 L33.7290737,19.4892025 C33.4561827,20.0719163 33.0225581,20.3663195 32.4393903,20.3663195" id="Fill-1" fill="#FFFFFF" sketch:type="MSShapeGroup"></path>
                <path d="M46.7049519,9.48497563 C44.1995938,9.48497563 42.3104657,11.4056644 42.3104657,13.9526911 L42.3104657,13.9985089 C42.3104657,16.516534 44.2621578,18.4888895 46.753528,18.4888895 C49.272874,18.4888895 51.1724294,16.5789241 51.1724294,14.0460326 L51.1724294,13.9985089 C51.1724294,11.467567 49.2100557,9.48497563 46.7049519,9.48497563 M46.7049519,20.4590517 C42.951874,20.4590517 40.0121284,17.6422365 40.0121284,14.0460326 L40.0121284,13.9985089 C40.0121284,10.375253 42.9732374,7.53723493 46.753528,7.53723493 C50.5200851,7.53723493 53.4705125,10.3552687 53.4705125,13.9526911 L53.4705125,13.9985089 C53.4705125,17.6212773 50.4987218,20.4590517 46.7049519,20.4590517" id="Fill-3" fill="#FFFFFF" sketch:type="MSShapeGroup"></path>
                <path d="M57.4134187,20.29635 C56.7758253,20.29635 56.2763304,19.817701 56.2763304,19.2067168 L56.2763304,3.81439863 C56.2763304,3.21365029 56.7758253,2.72476542 57.3895121,2.72476542 C58.0161696,2.72476542 58.5260917,3.21365029 58.5260917,3.81439863 L58.5260917,19.2067168 C58.5260917,19.8279369 58.0477059,20.29635 57.4134187,20.29635" id="Fill-5" fill="#FFFFFF" sketch:type="MSShapeGroup"></path>
                <path d="M68.0473936,9.48497563 C65.5420355,9.48497563 63.6529074,11.4056644 63.6529074,13.9526911 L63.6529074,13.9985089 C63.6529074,16.516534 65.6045995,18.4888895 68.0959697,18.4888895 C70.6158244,18.4888895 72.5158884,16.5789241 72.5158884,14.0460326 L72.5158884,13.9985089 C72.5158884,11.467567 70.5532604,9.48497563 68.0473936,9.48497563 M68.0473936,20.4590517 C64.2943157,20.4590517 61.3545701,17.6422365 61.3545701,14.0460326 L61.3545701,13.9985089 C61.3545701,10.375253 64.3156791,7.53723493 68.0959697,7.53723493 C71.8632898,7.53723493 74.8142258,10.3552687 74.8142258,13.9526911 L74.8142258,13.9985089 C74.8142258,17.6212773 71.8419265,20.4590517 68.0473936,20.4590517" id="Fill-7" fill="#FFFFFF" sketch:type="MSShapeGroup"></path>
                <path d="M93.1352071,20.3260828 C92.4882036,20.3260828 91.941913,19.8030783 91.941913,19.1838079 L91.941913,7.73595713 L86.912631,14.8157703 C86.6371967,15.1969348 86.3248853,15.3738692 85.9286465,15.3738692 C85.5268126,15.3738692 85.1877971,15.1864552 84.9207555,14.8172326 L79.9135998,7.76032826 L79.9135998,19.2067168 C79.9135998,19.8342734 79.4011344,20.3260828 78.7470099,20.3260828 C78.1053472,20.3260828 77.6028005,19.8342734 77.6028005,19.2067168 L77.6028005,4.55844923 C77.6028005,3.95160809 78.1371379,3.43908324 78.7698991,3.43908324 L78.9898905,3.43908324 C79.4301275,3.43908324 79.80424,3.64063248 80.0712815,4.02204066 L85.9520445,12.4983196 L91.834842,4.02277179 C92.0700929,3.65428031 92.4660773,3.43908324 92.9172503,3.43908324 L93.1352071,3.43908324 C93.7679683,3.43908324 94.3028144,3.95160809 94.3028144,4.55844923 L94.3028144,19.1838079 C94.3028144,19.8030783 93.7679683,20.3260828 93.1352071,20.3260828" id="Fill-9" fill="#4BBCED" sketch:type="MSShapeGroup"></path>
                <path d="M98.8686903,13.1118628 L106.452415,13.1118628 C106.219453,11.2976759 105.125346,9.44473889 102.695268,9.44473889 C100.73086,9.44473889 99.1850709,10.9408825 98.8686903,13.1118628 M102.986216,20.4890038 C99.2908702,20.4890038 96.5042284,17.7087453 96.5042284,14.0221245 L96.5042284,13.9746008 C96.5042284,10.3481767 99.2448374,7.50747778 102.743336,7.50747778 C106.712336,7.50747778 108.788901,10.6788929 108.788901,13.8118016 C108.788901,14.3913471 108.297291,14.8626847 107.693268,14.8626847 L98.8689446,14.8626847 C99.1919377,17.0516996 100.839965,18.5059249 103.035047,18.5059249 C104.363133,18.5059249 105.464107,18.0806487 106.499974,17.1674625 C106.724035,16.986385 106.944789,16.9018172 107.182583,16.9018172 C107.760156,16.9018172 108.230149,17.3412286 108.230149,17.8815366 C108.230149,18.1608297 108.100189,18.4237942 107.864683,18.6224189 C106.463097,19.9111643 104.956474,20.4890038 102.986216,20.4890038" id="Fill-11" fill="#4BBCED" sketch:type="MSShapeGroup"></path>
                <path d="M115.411506,20.4198629 C112.983208,20.4198629 111.645966,19.1384289 111.645966,16.8119608 L111.645966,9.7704103 L110.849419,9.7704103 C110.291684,9.7704103 109.802108,9.30150976 109.802108,8.7672946 C109.802108,8.2238184 110.281765,7.76442261 110.849419,7.76442261 L111.645966,7.76442261 L111.645966,5.14013935 C111.645966,4.51209534 112.148513,4.02028594 112.789667,4.02028594 C113.423191,4.02028594 113.958291,4.53305451 113.958291,5.14013935 L113.958291,7.76442261 L116.988068,7.76442261 C117.569201,7.76442261 118.060303,8.2238184 118.060303,8.7672946 C118.060303,9.32027553 117.57912,9.7704103 116.988068,9.7704103 L113.958291,9.7704103 L113.958291,16.5801914 C113.958291,17.7992353 114.558499,18.3668389 115.847674,18.3668389 C116.264767,18.3668389 116.54427,18.29665 116.729165,18.2503449 C116.835981,18.2235367 116.913042,18.2040398 116.988068,18.2040398 C117.551653,18.2040398 118.010201,18.6436949 118.010201,19.1840029 C118.010201,19.5822271 117.751044,19.9261038 117.334459,20.080373 C116.742135,20.3116551 116.129975,20.4198629 115.411506,20.4198629" id="Fill-13" fill="#4BBCED" sketch:type="MSShapeGroup"></path>
                <path d="M121.963357,20.3260828 C121.308724,20.3260828 120.795749,19.8342734 120.795749,19.2067168 L120.795749,8.76709963 C120.795749,8.14977891 121.308469,7.64748992 121.938433,7.64748992 C122.593575,7.64748992 123.106549,8.13929932 123.106549,8.76709963 L123.106549,10.1628342 C124.096891,8.6220914 125.688459,7.6016722 127.203729,7.6016722 C127.867263,7.6016722 128.348447,8.07252243 128.348447,8.72103819 C128.348447,9.30180221 127.941018,9.75047471 127.334198,9.83796707 C124.684383,10.1421188 123.106549,12.1144743 123.106549,15.1150478 L123.106549,19.2067168 C123.106549,19.8342734 122.604511,20.3260828 121.963357,20.3260828" id="Fill-15" fill="#4BBCED" sketch:type="MSShapeGroup"></path>
                <path d="M131.936696,5.67818078 C131.187963,5.67818078 130.623106,5.17711036 130.623106,4.51275336 L130.623106,4.21006393 C130.623106,3.53473992 131.175501,3.04439279 131.936696,3.04439279 C132.712388,3.04439279 133.27521,3.53473992 133.27521,4.21006393 L133.27521,4.51275336 C133.27521,5.17711036 132.699672,5.67818078 131.936696,5.67818078 M131.96162,20.3262046 C131.306224,20.3262046 130.792996,19.8343952 130.792996,19.2068386 L130.792996,8.76722148 C130.792996,8.14965705 131.306224,7.64736807 131.936696,7.64736807 C132.591838,7.64736807 133.105321,8.13917747 133.105321,8.76722148 L133.105321,19.2068386 C133.105321,19.8448748 132.613456,20.3262046 131.96162,20.3262046" id="Fill-17" fill="#4BBCED" sketch:type="MSShapeGroup"></path>
                <mask id="mask-2" sketch:name="Clip 20" fill="white">
                    <use xlink:href="#path-1"></use>
                </mask>
                <g id="Clip-20"></g>
                <path d="M145.849076,20.3260828 C145.335339,20.3260828 145.034727,20.0433777 144.852884,19.8308614 L141.214253,15.4116444 L137.603089,19.8038095 C137.394033,20.0484956 137.096981,20.3260828 136.628769,20.3260828 C136.028815,20.3260828 135.558568,19.8749732 135.558568,19.2995708 C135.558568,19.0051675 135.659026,18.7660867 135.865538,18.5681932 L139.837336,13.8833309 L136.092397,9.48312342 C135.865538,9.23819357 135.752364,8.97912846 135.752364,8.69764191 C135.752364,8.0890948 136.212947,7.64748992 136.847743,7.64748992 C137.361988,7.64748992 137.662601,7.93116988 137.84368,8.14466097 L141.28699,12.3301588 L144.705121,8.17098179 C144.914431,7.92556452 145.211737,7.64748992 145.679187,7.64748992 C146.289568,7.64748992 146.749897,8.08860737 146.749897,8.6737582 C146.749897,8.93647898 146.653253,9.17190409 146.454371,9.39368137 L142.665687,13.8358072 L146.628075,18.4914241 C146.842217,18.754876 146.945218,19.0107729 146.945218,19.2766619 C146.945218,19.8749732 146.473954,20.3260828 145.849076,20.3260828" id="Fill-19" fill="#4BBCED" sketch:type="MSShapeGroup" mask="url(#mask-2)"></path>
                <path d="M3.32113183,5.59987634 L4.93202803,8.71767498 C5.03197785,8.91288772 5.29952803,9.37228352 5.29952803,9.37228352 C5.88574775,10.4246289 7.54979792,13.3966882 8.14695363,14.3630035 C8.14695363,14.3630035 7.2313827,12.2266302 7.40279792,11.1599059 C7.40279792,11.1599059 7.54089654,10.5693934 7.95112318,10.3388425 C8.20010761,10.1989522 8.60245017,10.0390776 8.77081349,9.96011517 L12.0213446,8.41693523 C13.4394623,7.74429205 14.0200869,6.09777852 13.3173862,4.73835691 L11.7080159,1.62348281 C11.0060782,0.263573768 9.28785675,-0.29208799 7.8707564,0.380067769 L4.61819066,1.92227286 C3.71152111,2.35169217 3.14768201,3.180798 3.04239135,4.07716816 C2.98135329,4.58262539 3.06782388,5.11050406 3.32113183,5.59987634 M10.7481924,7.2987878 L8.61567509,8.31018969 C7.68586194,8.75203827 6.55792941,8.3881773 6.09734637,7.49570653 L5.04316817,5.45145616 C4.58182215,4.56215364 4.96280138,3.48080661 5.89261453,3.04090772 L8.02462318,2.02901841 C8.95392768,1.5866824 10.0821145,1.95176193 10.5426976,2.84277043 L11.5976388,4.88677709 C11.7644761,5.20871971 11.820682,5.55503346 11.7825332,5.88745567 C11.7123394,6.47382506 11.3438221,7.01730125 10.7481924,7.2987878" id="Fill-22" fill="#4BBCED" sketch:type="MSShapeGroup" mask="url(#mask-2)"></path>
                <path d="M16.3458659,8.64151519 L13.6912189,9.90199003 C13.5253988,9.98192733 13.1329749,10.1890819 13.1329749,10.1890819 C12.2380043,10.6472592 9.70746799,11.9481901 8.8829455,12.4166032 C8.8829455,12.4166032 10.7021341,11.7003357 11.6100753,11.8346206 C11.6100753,11.8346206 12.1146566,11.9425847 12.310487,12.2628214 C12.4305285,12.4580341 12.5648123,12.772178 12.6342431,12.9035384 L13.9475787,15.4469095 C14.5198106,16.5550647 15.923686,17.0086115 17.0801029,16.4592862 L19.7334784,15.2007611 C20.890404,14.6514358 21.3642119,13.309074 20.7914715,12.2001876 L19.4776272,9.65535419 C19.1116531,8.94712916 18.4064092,8.50674285 17.6441964,8.42436843 C17.2126064,8.37684473 16.7632137,8.44386533 16.3458659,8.64151519 M14.8992638,14.4501303 L14.0381185,12.7826576 C13.6614628,12.0544482 13.9730112,11.1739193 14.7314092,10.8144451 L16.4720112,9.98899496 C17.2309178,9.62781482 18.1510666,9.92489889 18.5244161,10.6531082 L19.388359,12.3200935 C19.7637431,13.0478155 19.452449,13.9288318 18.6937967,14.2878185 L16.9529403,15.1154621 C16.6787777,15.2456039 16.3845234,15.2882534 16.1024766,15.2587644 C15.6027275,15.204173 15.1398555,14.9141566 14.8992638,14.4501303" id="Fill-25" fill="#4BBCED" sketch:type="MSShapeGroup" mask="url(#mask-2)"></path>
                <path d="M13.0744038,19.9788429 L12.0034401,17.906322 C11.9368069,17.7759365 11.7590336,17.4703225 11.7590336,17.4703225 C11.3696616,16.7720897 10.2623294,14.795591 9.86456471,14.1502435 C9.86456471,14.1502435 10.4744367,15.5725426 10.3592273,16.2807677 C10.3592273,16.2807677 10.2684332,16.6748488 9.99655952,16.8276558 C9.8302308,16.9205098 9.5624263,17.0277428 9.45179481,17.0803844 L7.28952145,18.1056779 C6.34622907,18.5536192 5.96016332,19.6486141 6.4260872,20.552783 L7.49806817,22.6235979 C7.96399204,23.5270357 9.10743841,23.8977206 10.0492048,23.4497792 L12.2114782,22.4239984 C12.8142291,22.1383687 13.1896131,21.5873375 13.2600612,20.9917071 C13.2999903,20.6556292 13.2422585,20.3049286 13.0744038,19.9788429 M8.13591592,18.8497285 L9.55454221,18.1765979 C10.1725526,17.8829257 10.9215405,18.1256622 11.2280024,18.7183681 L11.9309574,20.0777897 C12.2358934,20.6700082 11.9825855,21.3877379 11.3650837,21.6799478 L9.94645744,22.3540532 C9.32895571,22.6482128 8.57844187,22.4045015 8.27299723,21.8127704 L7.57055087,20.4528614 C7.46042803,20.2391266 7.42202491,20.0093068 7.44898339,19.788017 C7.49425329,19.3980789 7.74094879,19.0368987 8.13591592,18.8497285" id="Fill-27" fill="#4BBCED" sketch:type="MSShapeGroup" mask="url(#mask-2)"></path>
                <path d="M3.06830709,18.1286355 L4.80687457,17.3036727 C4.91521713,17.2522497 5.17055969,17.1147965 5.17055969,17.1147965 C5.75652509,16.8152753 7.41574308,15.9642354 7.95313235,15.6566718 C7.95313235,15.6566718 6.76289014,16.1265472 6.16802336,16.0385674 C6.16802336,16.0385674 5.83816349,15.9691097 5.70998356,15.7580557 C5.63241436,15.6301073 5.54289187,15.4253898 5.49838495,15.3383848 L4.63851125,13.6757864 C4.26338149,12.949283 3.34552163,12.6512241 2.58839533,13.0121605 L0.851862457,13.835661 C0.0939731834,14.1953788 -0.215032007,15.0742018 0.158571799,15.8004615 L1.01869983,17.4645222 C1.25827422,17.9283048 1.72012889,18.2171027 2.21886073,18.2709629 C2.50116176,18.3024016 2.79516176,18.2575588 3.06830709,18.1286355 M4.01617734,14.3267392 L4.57874481,15.4178347 C4.82569464,15.8952651 4.6229974,16.4706675 4.12528287,16.7068238 L2.98590571,17.2466443 C2.48971713,17.483288 1.88747491,17.2885626 1.64281401,16.812107 L1.07744896,15.7210116 C0.832025087,15.2455308 1.03523097,14.6676913 1.53243685,14.4329974 L2.67130536,13.8907397 C2.85035035,13.8061719 3.04338322,13.777414 3.22878633,13.797642 C3.55610294,13.8327364 3.8577327,14.0221001 4.01617734,14.3267392" id="Fill-29" fill="#4BBCED" sketch:type="MSShapeGroup" mask="url(#mask-2)"></path>
            </g>
        </g>
    </g>
</svg>